# Made in Blockbench 4.12.1
mtllib mobs_hs_hell_sentinel.mtl

o cube
v 4.375 9.375 4.375
v 4.375 9.375 -4.375
v 4.375 0.625 4.375
v 4.375 0.625 -4.375
v -4.375 9.375 -4.375
v -4.375 9.375 4.375
v -4.375 0.625 -4.375
v -4.375 0.625 4.375
vt 0.15625 0.8359375
vt 0.265625 0.8359375
vt 0.265625 0.7265625
vt 0.15625 0.7265625
vt 0.1875 1
vt 0.296875 1
vt 0.296875 0.890625
vt 0.1875 0.890625
vt 0 0.765625
vt 0.109375 0.765625
vt 0.109375 0.65625
vt 0 0.65625
vt 0.2734375 0.8828125
vt 0.3828125 0.8828125
vt 0.3828125 0.7734375
vt 0.2734375 0.7734375
vt 0.3828125 0.65625
vt 0.2734375 0.65625
vt 0.2734375 0.765625
vt 0.3828125 0.765625
vt 0.2265625 0.71875
vt 0.1171875 0.71875
vt 0.1171875 0.609375
vt 0.2265625 0.609375
vn 0 0 -1
vn 1 0 0
vn 0 0 1
vn -1 0 0
vn 0 1 0
vn 0 -1 0
usemtl m_a7fae5ec-5dc3-c877-ce38-21137325dad1
f 4/4/1 7/3/1 5/2/1 2/1/1
f 3/8/2 4/7/2 2/6/2 1/5/2
f 8/12/3 3/11/3 1/10/3 6/9/3
f 7/16/4 8/15/4 6/14/4 5/13/4
f 6/20/5 1/19/5 2/18/5 5/17/5
f 7/24/6 4/23/6 3/22/6 8/21/6
o cube
v -0.9375 -4.375 3.4375
v -0.9375 -4.375 0.9375
v -0.9375 -12.5 3.4375
v -0.9375 -12.5 0.9375
v -4.875 -4.375 0.9375
v -4.875 -4.375 3.4375
v -4.875 -12.5 0.9375
v -4.875 -12.5 3.4375
vt 0.609375 0.390625
vt 0.640625 0.390625
vt 0.640625 0.3125
vt 0.609375 0.3125
vt 0.1875 0.375
vt 0.21875 0.375
vt 0.21875 0.296875
vt 0.1875 0.296875
vt 0.2265625 0.375
vt 0.2578125 0.375
vt 0.2578125 0.296875
vt 0.2265625 0.296875
vt 0.625 0.5
vt 0.65625 0.5
vt 0.65625 0.421875
vt 0.625 0.421875
vt 0.140625 0.96875
vt 0.109375 0.96875
vt 0.109375 1
vt 0.140625 1
vt 0.1796875 1
vt 0.1484375 1
vt 0.1484375 0.96875
vt 0.1796875 0.96875
vn 0 0 -1
vn 1 0 0
vn 0 0 1
vn -1 0 0
vn 0 1 0
vn 0 -1 0
usemtl m_a7fae5ec-5dc3-c877-ce38-21137325dad1
f 12/28/7 15/27/7 13/26/7 10/25/7
f 11/32/8 12/31/8 10/30/8 9/29/8
f 16/36/9 11/35/9 9/34/9 14/33/9
f 15/40/10 16/39/10 14/38/10 13/37/10
f 14/44/11 9/43/11 10/42/11 13/41/11
f 15/48/12 12/47/12 11/46/12 16/45/12
o cube
v 4.5625 -4.375 3.4375
v 4.5625 -4.375 0.9375
v 4.5625 -12.5 3.4375
v 4.5625 -12.5 0.9375
v 0.625 -4.375 0.9375
v 0.625 -4.375 3.4375
v 0.625 -12.5 0.9375
v 0.625 -12.5 3.4375
vt 0 0.359375
vt 0.03125 0.359375
vt 0.03125 0.28125
vt 0 0.28125
vt 0.6484375 0.9296875
vt 0.6796875 0.9296875
vt 0.6796875 0.8515625
vt 0.6484375 0.8515625
vt 0.6484375 0.84375
vt 0.6796875 0.84375
vt 0.6796875 0.765625
vt 0.6484375 0.765625
vt 0.6484375 0.7578125
vt 0.6796875 0.7578125
vt 0.6796875 0.6796875
vt 0.6484375 0.6796875
vt 0.03125 0.78125
vt 0 0.78125
vt 0 0.8125
vt 0.03125 0.8125
vt 0.0703125 0.8125
vt 0.0390625 0.8125
vt 0.0390625 0.78125
vt 0.0703125 0.78125
vn 0 0 -1
vn 1 0 0
vn 0 0 1
vn -1 0 0
vn 0 1 0
vn 0 -1 0
usemtl m_a7fae5ec-5dc3-c877-ce38-21137325dad1
f 20/52/13 23/51/13 21/50/13 18/49/13
f 19/56/14 20/55/14 18/54/14 17/53/14
f 24/60/15 19/59/15 17/58/15 22/57/15
f 23/64/16 24/63/16 22/62/16 21/61/16
f 22/68/17 17/67/17 18/66/17 21/65/17
f 23/72/18 20/71/18 19/70/18 24/69/18
o cube
v 4.5625 -4.375 -0.9375
v 4.5625 -4.375 -3.4375
v 4.5625 -12.5 -0.9375
v 4.5625 -12.5 -3.4375
v 0.625 -4.375 -3.4375
v 0.625 -4.375 -0.9375
v 0.625 -12.5 -3.4375
v 0.625 -12.5 -0.9375
vt 0.265625 0.3515625
vt 0.296875 0.3515625
vt 0.296875 0.2734375
vt 0.265625 0.2734375
vt 0.3046875 0.3515625
vt 0.3359375 0.3515625
vt 0.3359375 0.2734375
vt 0.3046875 0.2734375
vt 0.34375 0.3515625
vt 0.375 0.3515625
vt 0.375 0.2734375
vt 0.34375 0.2734375
vt 0.3828125 0.3515625
vt 0.4140625 0.3515625
vt 0.4140625 0.2734375
vt 0.3828125 0.2734375
vt 0.21875 0.8515625
vt 0.1875 0.8515625
vt 0.1875 0.8828125
vt 0.21875 0.8828125
vt 0.2578125 0.8828125
vt 0.2265625 0.8828125
vt 0.2265625 0.8515625
vt 0.2578125 0.8515625
vn 0 0 -1
vn 1 0 0
vn 0 0 1
vn -1 0 0
vn 0 1 0
vn 0 -1 0
usemtl m_a7fae5ec-5dc3-c877-ce38-21137325dad1
f 28/76/19 31/75/19 29/74/19 26/73/19
f 27/80/20 28/79/20 26/78/20 25/77/20
f 32/84/21 27/83/21 25/82/21 30/81/21
f 31/88/22 32/87/22 30/86/22 29/85/22
f 30/92/23 25/91/23 26/90/23 29/89/23
f 31/96/24 28/95/24 27/94/24 32/93/24
o cube
v -0.625 -4.375 -0.9375
v -0.625 -4.375 -3.4375
v -0.625 -12.5 -0.9375
v -0.625 -12.5 -3.4375
v -4.5625 -4.375 -3.4375
v -4.5625 -4.375 -0.9375
v -4.5625 -12.5 -3.4375
v -4.5625 -12.5 -0.9375
vt 0.6484375 0.4140625
vt 0.6796875 0.4140625
vt 0.6796875 0.3359375
vt 0.6484375 0.3359375
vt 0.65625 0.671875
vt 0.6875 0.671875
vt 0.6875 0.59375
vt 0.65625 0.59375
vt 0.65625 0.5859375
vt 0.6875 0.5859375
vt 0.6875 0.5078125
vt 0.65625 0.5078125
vt 0.0390625 0.3359375
vt 0.0703125 0.3359375
vt 0.0703125 0.2578125
vt 0.0390625 0.2578125
vt 0.1484375 0.734375
vt 0.1171875 0.734375
vt 0.1171875 0.765625
vt 0.1484375 0.765625
vt 0.265625 0.71875
vt 0.234375 0.71875
vt 0.234375 0.6875
vt 0.265625 0.6875
vn 0 0 -1
vn 1 0 0
vn 0 0 1
vn -1 0 0
vn 0 1 0
vn 0 -1 0
usemtl m_a7fae5ec-5dc3-c877-ce38-21137325dad1
f 36/100/25 39/99/25 37/98/25 34/97/25
f 35/104/26 36/103/26 34/102/26 33/101/26
f 40/108/27 35/107/27 33/106/27 38/105/27
f 39/112/28 40/111/28 38/110/28 37/109/28
f 38/116/29 33/115/29 34/114/29 37/113/29
f 39/120/30 36/119/30 35/118/30 40/117/30
o cube
v 6.5540540540540535 12.632211538461538 3.4375
v 6.5540540540540535 12.632211538461538 -3.4375
v 9.6875 3.28125 3.4375
v 9.6875 3.28125 -3.4375
v 2.03125 17.65625 3.4375
v 2.03125 17.65625 -3.4375
v 2.03125 9.435096153846153 -3.4375
v 2.03125 9.435096153846153 3.4375
v 9.6875 9.435096153846153 3.4375
v 9.6875 9.435096153846153 -3.4375
v 4.315878378378378 9.435096153846153 -3.4375
v 4.315878378378378 4.53125 -3.4375
v 4.315878378378378 4.53125 3.4375
v 4.315878378378378 9.435096153846153 3.4375
v 4.315878378378378 17.65625 3.4375
v 4.315878378378378 17.65625 -3.4375
vt 0.5 0.921875
vt 0.5 1
vt 0.4140625 1
vt 0.4140625 0.921875
vt 0.0859375 0.57968671875
vt 0.0859375 0.6484375
vt 0 0.6484375
vt 0 0.57968671875
vt 0.4375 0.4296875
vt 0.4375 0.5
vt 0.3515625 0.5
vt 0.3515625 0.4296875
vt 0.59375 0.6328125
vt 0.5234375 0.6328125
vt 0.5234375 0.5715140625
vt 0.59375 0.5558890625
vt 0.0009765625 0.8203125
vt 0.068121875 0.8359375
vt 0.068121875 0.8972359375
vt 0.0009765625 0.8972359375
vt 0.328125 0.6484375
vt 0.328125 0.546875
vt 0.4140625 0.546875
vt 0.4140625 0.6484375
vt 0.4860640625 0.49969921875
vt 0.51404140625 0.45973593749999997
vt 0.51404140625 0.5625
vt 0 0.57968671875
vt 0 0.52372890625
vt 0.0859375 0.52372890625
vt 0.0859375 0.57968671875
vt 0.0009765625 0.8972359375
vt 0.068121875 0.8972359375
vt 0.04014453125 0.93719921875
vt 0.4453125 0.34375
vt 0.4765625 0.34375
vt 0.4765625 0.4453125
vt 0.4453125 0.4453125
vt 0.0546875 0.34375
vt 0.0859375 0.34375
vt 0.0859375 0.4296875
vt 0.0546875 0.4296875
vt 0.0966796875 1
vt 0.068121875 1
vt 0.068121875 0.8972359375
vt 0.0966796875 0.8972359375
vt 0.51404140625 0.45973593749999997
vt 0.4860640625 0.49969921875
vt 0.44689609375 0.45973593749999997
vt 0.068121875 0.8972359375
vt 0.068121875 1
vt 0.04014453125 0.93719921875
vn 1 0 0
vn 0.9134556075387894 0.40693838975444574 0
vn -0.22664863997772486 -0.9739765880123853 0
vn 0 0 1
vn 0 0 -1
vn -1 0 0
vn 0 0 -1
vn 0.7141823674850889 0.6999596745337502 0
vn 0 0 -1
vn 0 0 1
vn 0 1 0
vn 0 0 -1
vn 0 0 -1
vn 0 0 -1
usemtl m_a7fae5ec-5dc3-c877-ce38-21137325dad1
f 44/121/31 50/122/31 49/123/31 43/124/31
f 42/125/32 56/126/32 55/127/32 41/128/32
f 43/129/33 53/130/33 52/131/33 44/132/33
f 49/133/34 54/134/34 53/135/34 43/136/34
f 44/137/35 52/138/35 51/139/35 50/140/35
f 46/141/36 47/142/36 48/143/36 45/144/36
f 41/145/37 54/146/37 55/147/37
f 41/148/38 49/149/38 50/150/38 42/151/38
f 50/152/39 51/153/39 42/154/39
f 48/155/40 54/156/40 55/157/40 45/158/40
f 45/159/41 55/160/41 56/161/41 46/162/41
f 46/163/42 56/164/42 51/165/42 47/166/42
f 54/167/43 41/168/43 49/169/43
f 51/170/44 56/171/44 42/172/44
o cube
v -5.625 4.53125 1.875
v -5.625 4.53125 -2.5
v -5.625 -6.09375 1.875
v -5.625 -6.09375 -2.5
v -8.75 4.53125 -2.5
v -8.75 4.53125 1.875
v -8.75 -6.09375 -2.5
v -8.75 -6.09375 1.875
vt 0.21875 0.515625
vt 0.2578125 0.515625
vt 0.2578125 0.3828125
vt 0.21875 0.3828125
vt 0.09375 0.6015625
vt 0.1484375 0.6015625
vt 0.1484375 0.46875
vt 0.09375 0.46875
vt 0.09375 0.4609375
vt 0.1328125 0.4609375
vt 0.1328125 0.328125
vt 0.09375 0.328125
vt 0.15625 0.6015625
vt 0.2109375 0.6015625
vt 0.2109375 0.46875
vt 0.15625 0.46875
vt 0.6953125 0.9453125
vt 0.65625 0.9453125
vt 0.65625 1
vt 0.6953125 1
vt 0.703125 0.5
vt 0.6640625 0.5
vt 0.6640625 0.4453125
vt 0.703125 0.4453125
vn 0 0 -1
vn 1 0 0
vn 0 0 1
vn -1 0 0
vn 0 1 0
vn 0 -1 0
usemtl m_a7fae5ec-5dc3-c877-ce38-21137325dad1
f 60/176/45 63/175/45 61/174/45 58/173/45
f 59/180/46 60/179/46 58/178/46 57/177/46
f 64/184/47 59/183/47 57/182/47 62/181/47
f 63/188/48 64/187/48 62/186/48 61/185/48
f 62/192/49 57/191/49 58/190/49 61/189/49
f 63/196/50 60/195/50 59/194/50 64/193/50
o cube
v 8.75 4.53125 1.875
v 8.75 4.53125 -2.5
v 8.75 -6.09375 1.875
v 8.75 -6.09375 -2.5
v 5.625 4.53125 -2.5
v 5.625 4.53125 1.875
v 5.625 -6.09375 -2.5
v 5.625 -6.09375 1.875
vt 0.140625 0.4609375
vt 0.1796875 0.4609375
vt 0.1796875 0.328125
vt 0.140625 0.328125
vt 0.421875 0.78125
vt 0.4765625 0.78125
vt 0.4765625 0.6484375
vt 0.421875 0.6484375
vt 0.5234375 0.4609375
vt 0.5625 0.4609375
vt 0.5625 0.328125
vt 0.5234375 0.328125
vt 0.421875 0.640625
vt 0.4765625 0.640625
vt 0.4765625 0.5078125
vt 0.421875 0.5078125
vt 0.6875 0.2734375
vt 0.6484375 0.2734375
vt 0.6484375 0.328125
vt 0.6875 0.328125
vt 0.140625 0.3203125
vt 0.1015625 0.3203125
vt 0.1015625 0.265625
vt 0.140625 0.265625
vn 0 0 -1
vn 1 0 0
vn 0 0 1
vn -1 0 0
vn 0 1 0
vn 0 -1 0
usemtl m_a7fae5ec-5dc3-c877-ce38-21137325dad1
f 68/200/51 71/199/51 69/198/51 66/197/51
f 67/204/52 68/203/52 66/202/52 65/201/52
f 72/208/53 67/207/53 65/206/53 70/205/53
f 71/212/54 72/211/54 70/210/54 69/209/54
f 70/216/55 65/215/55 66/214/55 69/213/55
f 71/220/56 68/219/56 67/218/56 72/217/56
o cube
v 9.0625 2.8125 2.1875
v 9.0625 2.8125 -2.8125
v 9.0625 1.5625 2.1875
v 9.0625 1.5625 -2.8125
v 5.3125 2.8125 -2.8125
v 5.3125 2.8125 2.1875
v 5.3125 1.5625 -2.8125
v 5.3125 1.5625 2.1875
vt 0.265625 0.515625
vt 0.3125 0.515625
vt 0.3125 0.5
vt 0.265625 0.5
vt 0.4140625 0.9140625
vt 0.4765625 0.9140625
vt 0.4765625 0.8984375
vt 0.4140625 0.8984375
vt 0.734375 0.828125
vt 0.78125 0.828125
vt 0.78125 0.8125
vt 0.734375 0.8125
vt 0.3515625 0.5390625
vt 0.4140625 0.5390625
vt 0.4140625 0.5234375
vt 0.3515625 0.5234375
vt 0.046875 0.3671875
vt 0 0.3671875
vt 0 0.4296875
vt 0.046875 0.4296875
vt 0.6171875 0.4609375
vt 0.5703125 0.4609375
vt 0.5703125 0.3984375
vt 0.6171875 0.3984375
vn 0 0 -1
vn 1 0 0
vn 0 0 1
vn -1 0 0
vn 0 1 0
vn 0 -1 0
usemtl m_a7fae5ec-5dc3-c877-ce38-21137325dad1
f 76/224/57 79/223/57 77/222/57 74/221/57
f 75/228/58 76/227/58 74/226/58 73/225/58
f 80/232/59 75/231/59 73/230/59 78/229/59
f 79/236/60 80/235/60 78/234/60 77/233/60
f 78/240/61 73/239/61 74/238/61 77/237/61
f 79/244/62 76/243/62 75/242/62 80/241/62
o cube
v 9.0625 0.78125 2.1875
v 9.0625 0.78125 -2.8125
v 9.0625 -0.46875 2.1875
v 9.0625 -0.46875 -2.8125
v 5.3125 0.78125 -2.8125
v 5.3125 0.78125 2.1875
v 5.3125 -0.46875 -2.8125
v 5.3125 -0.46875 2.1875
vt 0.734375 0.8046875
vt 0.78125 0.8046875
vt 0.78125 0.7890625
vt 0.734375 0.7890625
vt 0.7265625 0.921875
vt 0.7890625 0.921875
vt 0.7890625 0.90625
vt 0.7265625 0.90625
vt 0.734375 0.7421875
vt 0.78125 0.7421875
vt 0.78125 0.7265625
vt 0.734375 0.7265625
vt 0.7265625 0.765625
vt 0.7890625 0.765625
vt 0.7890625 0.75
vt 0.7265625 0.75
vt 0.3125 0.359375
vt 0.265625 0.359375
vt 0.265625 0.421875
vt 0.3125 0.421875
vt 0.3671875 0.421875
vt 0.3203125 0.421875
vt 0.3203125 0.359375
vt 0.3671875 0.359375
vn 0 0 -1
vn 1 0 0
vn 0 0 1
vn -1 0 0
vn 0 1 0
vn 0 -1 0
usemtl m_a7fae5ec-5dc3-c877-ce38-21137325dad1
f 84/248/63 87/247/63 85/246/63 82/245/63
f 83/252/64 84/251/64 82/250/64 81/249/64
f 88/256/65 83/255/65 81/254/65 86/253/65
f 87/260/66 88/259/66 86/258/66 85/257/66
f 86/264/67 81/263/67 82/262/67 85/261/67
f 87/268/68 84/267/68 83/266/68 88/265/68
o cube
v 9.0625 -1.25 2.1875
v 9.0625 -1.25 -2.8125
v 9.0625 -2.5 2.1875
v 9.0625 -2.5 -2.8125
v 5.3125 -1.25 -2.8125
v 5.3125 -1.25 2.1875
v 5.3125 -2.5 -2.8125
v 5.3125 -2.5 2.1875
vt 0.734375 0.71875
vt 0.78125 0.71875
vt 0.78125 0.703125
vt 0.734375 0.703125
vt 0.7265625 0.6875
vt 0.7890625 0.6875
vt 0.7890625 0.671875
vt 0.7265625 0.671875
vt 0.359375 0.265625
vt 0.40625 0.265625
vt 0.40625 0.25
vt 0.359375 0.25
vt 0.7265625 0.53125
vt 0.7890625 0.53125
vt 0.7890625 0.515625
vt 0.7265625 0.515625
vt 0.421875 0.359375
vt 0.375 0.359375
vt 0.375 0.421875
vt 0.421875 0.421875
vt 0.640625 0.921875
vt 0.59375 0.921875
vt 0.59375 0.859375
vt 0.640625 0.859375
vn 0 0 -1
vn 1 0 0
vn 0 0 1
vn -1 0 0
vn 0 1 0
vn 0 -1 0
usemtl m_a7fae5ec-5dc3-c877-ce38-21137325dad1
f 92/272/69 95/271/69 93/270/69 90/269/69
f 91/276/70 92/275/70 90/274/70 89/273/70
f 96/280/71 91/279/71 89/278/71 94/277/71
f 95/284/72 96/283/72 94/282/72 93/281/72
f 94/288/73 89/287/73 90/286/73 93/285/73
f 95/292/74 92/291/74 91/290/74 96/289/74
o cube
v -5.3125 -1.25 2.1875
v -5.3125 -1.25 -2.8125
v -5.3125 -2.5 2.1875
v -5.3125 -2.5 -2.8125
v -9.0625 -1.25 -2.8125
v -9.0625 -1.25 2.1875
v -9.0625 -2.5 -2.8125
v -9.0625 -2.5 2.1875
vt 0.734375 0.5078125
vt 0.78125 0.5078125
vt 0.78125 0.4921875
vt 0.734375 0.4921875
vt 0.7265625 0.328125
vt 0.7890625 0.328125
vt 0.7890625 0.3125
vt 0.7265625 0.3125
vt 0.734375 0.484375
vt 0.78125 0.484375
vt 0.78125 0.46875
vt 0.734375 0.46875
vt 0.7265625 0.3046875
vt 0.7890625 0.3046875
vt 0.7890625 0.2890625
vt 0.7265625 0.2890625
vt 0.640625 0.7890625
vt 0.59375 0.7890625
vt 0.59375 0.8515625
vt 0.640625 0.8515625
vt 0.640625 0.78125
vt 0.59375 0.78125
vt 0.59375 0.71875
vt 0.640625 0.71875
vn 0 0 -1
vn 1 0 0
vn 0 0 1
vn -1 0 0
vn 0 1 0
vn 0 -1 0
usemtl m_a7fae5ec-5dc3-c877-ce38-21137325dad1
f 100/296/75 103/295/75 101/294/75 98/293/75
f 99/300/76 100/299/76 98/298/76 97/297/76
f 104/304/77 99/303/77 97/302/77 102/301/77
f 103/308/78 104/307/78 102/306/78 101/305/78
f 102/312/79 97/311/79 98/310/79 101/309/79
f 103/316/80 100/315/80 99/314/80 104/313/80
o cube
v -5.3125 0.78125 2.1875
v -5.3125 0.78125 -2.8125
v -5.3125 -0.46875 2.1875
v -5.3125 -0.46875 -2.8125
v -9.0625 0.78125 -2.8125
v -9.0625 0.78125 2.1875
v -9.0625 -0.46875 -2.8125
v -9.0625 -0.46875 2.1875
vt 0.734375 0.4609375
vt 0.78125 0.4609375
vt 0.78125 0.4453125
vt 0.734375 0.4453125
vt 0.7265625 0.28125
vt 0.7890625 0.28125
vt 0.7890625 0.265625
vt 0.7265625 0.265625
vt 0.734375 0.4375
vt 0.78125 0.4375
vt 0.78125 0.421875
vt 0.734375 0.421875
vt 0.734375 0.8984375
vt 0.796875 0.8984375
vt 0.796875 0.8828125
vt 0.734375 0.8828125
vt 0.640625 0.6484375
vt 0.59375 0.6484375
vt 0.59375 0.7109375
vt 0.640625 0.7109375
vt 0.6484375 1
vt 0.6015625 1
vt 0.6015625 0.9375
vt 0.6484375 0.9375
vn 0 0 -1
vn 1 0 0
vn 0 0 1
vn -1 0 0
vn 0 1 0
vn 0 -1 0
usemtl m_a7fae5ec-5dc3-c877-ce38-21137325dad1
f 108/320/81 111/319/81 109/318/81 106/317/81
f 107/324/82 108/323/82 106/322/82 105/321/82
f 112/328/83 107/327/83 105/326/83 110/325/83
f 111/332/84 112/331/84 110/330/84 109/329/84
f 110/336/85 105/335/85 106/334/85 109/333/85
f 111/340/86 108/339/86 107/338/86 112/337/86
o cube
v -5.3125 2.8125 2.1875
v -5.3125 2.8125 -2.8125
v -5.3125 1.5625 2.1875
v -5.3125 1.5625 -2.8125
v -9.0625 2.8125 -2.8125
v -9.0625 2.8125 2.1875
v -9.0625 1.5625 -2.8125
v -9.0625 1.5625 2.1875
vt 0.640625 0.265625
vt 0.6875 0.265625
vt 0.6875 0.25
vt 0.640625 0.25
vt 0.734375 0.875
vt 0.796875 0.875
vt 0.796875 0.859375
vt 0.734375 0.859375
vt 0.7265625 0.2578125
vt 0.7734375 0.2578125
vt 0.7734375 0.2421875
vt 0.7265625 0.2421875
vt 0.734375 0.8515625
vt 0.796875 0.8515625
vt 0.796875 0.8359375
vt 0.734375 0.8359375
vt 0.6484375 0.578125
vt 0.6015625 0.578125
vt 0.6015625 0.640625
vt 0.6484375 0.640625
vt 0.6484375 0.5703125
vt 0.6015625 0.5703125
vt 0.6015625 0.5078125
vt 0.6484375 0.5078125
vn 0 0 -1
vn 1 0 0
vn 0 0 1
vn -1 0 0
vn 0 1 0
vn 0 -1 0
usemtl m_a7fae5ec-5dc3-c877-ce38-21137325dad1
f 116/344/87 119/343/87 117/342/87 114/341/87
f 115/348/88 116/347/88 114/346/88 113/345/88
f 120/352/89 115/351/89 113/350/89 118/349/89
f 119/356/90 120/355/90 118/354/90 117/353/90
f 118/360/91 113/359/91 114/358/91 117/357/91
f 119/364/92 116/363/92 115/362/92 120/361/92
o cube
v 4.0625 0.625 4.0625
v 4.0625 0.625 -4.0625
v 4.0625 -4.375 4.0625
v 4.0625 -4.375 -4.0625
v -4.0625 0.625 4.0625
v -4.0625 0.625 -4.0625
v -4.0625 -4.375 4.0625
v -4.0625 -4.375 -4.0625
vt 0.5859375 0.8515625
vt 0.5859375 0.9140625
vt 0.484375 0.9140625
vt 0.484375 0.8515625
vt 0.5859375 0.78125
vt 0.5859375 0.84375
vt 0.484375 0.84375
vt 0.484375 0.78125
vt 0.40625 0.8984375
vt 0.40625 1
vt 0.3046875 1
vt 0.3046875 0.8984375
vt 0.5859375 0.7109375
vt 0.5859375 0.7734375
vt 0.484375 0.7734375
vt 0.484375 0.7109375
vt 0.5859375 0.640625
vt 0.5859375 0.703125
vt 0.484375 0.703125
vt 0.484375 0.640625
vn 1 0 0
vn -1 0 0
vn 0 -1 0
vn 0 0 1
vn 0 0 -1
usemtl m_a7fae5ec-5dc3-c877-ce38-21137325dad1
f 124/365/93 122/366/93 121/367/93 123/368/93
f 127/369/94 125/370/94 126/371/94 128/372/94
f 124/373/95 123/374/95 127/375/95 128/376/95
f 123/377/96 121/378/96 125/379/96 127/380/96
f 128/381/97 126/382/97 122/383/97 124/384/97
o cube
v 1.25 15 -2.5
v 1.25 9.375 -1.25
v 1.25 9.375 -2.5
v 0.625 15 -2.5
v 0.625 9.375 -1.25
v 0.625 9.375 -2.5
vt 0.140625 0.1875
vt 0.140625 0.2578125
vt 0.1328125 0.2578125
vt 0.1328125 0.1875
vt 0.5703125 0.2265625
vt 0.5859375 0.2265625
vt 0.5703125 0.296875
vt 0.703125 0.2421875
vt 0.71875 0.2421875
vt 0.71875 0.3125
vt 0.75 0.9296875
vt 0.7578125 0.9296875
vt 0.7578125 1
vt 0.75 1
vn 0 0 -1
vn -1 0 0
vn 1 0 0
vn 0 0.21693045781865616 0.9761870601839527
usemtl m_a7fae5ec-5dc3-c877-ce38-21137325dad1
f 134/385/98 132/386/98 129/387/98 131/388/98
f 134/389/99 133/390/99 132/391/99
f 130/392/100 131/393/100 129/394/100
f 133/395/101 130/396/101 129/397/101 132/398/101
o cube
v -0.625 15 -2.5
v -0.625 9.375 -1.25
v -0.625 9.375 -2.5
v -1.25 15 -2.5
v -1.25 9.375 -1.25
v -1.25 9.375 -2.5
vt 0.0546875 0.1796875
vt 0.0546875 0.25
vt 0.046875 0.25
vt 0.046875 0.1796875
vt 0.7109375 0.8515625
vt 0.7265625 0.8515625
vt 0.7109375 0.921875
vt 0.7109375 0.7734375
vt 0.7265625 0.7734375
vt 0.7265625 0.84375
vt 0.0625 0.1796875
vt 0.0703125 0.1796875
vt 0.0703125 0.25
vt 0.0625 0.25
vn 0 0 -1
vn -1 0 0
vn 1 0 0
vn 0 0.21693045781865616 0.9761870601839527
usemtl m_a7fae5ec-5dc3-c877-ce38-21137325dad1
f 140/399/102 138/400/102 135/401/102 137/402/102
f 140/403/103 139/404/103 138/405/103
f 136/406/104 137/407/104 135/408/104
f 139/409/105 136/410/105 135/411/105 138/412/105
o cube
v 6.345340089338122 18.846712665143926 -2.5
v 5.127867260936293 13.3550476250943 -1.25
v 5.127867260936293 13.3550476250943 -2.5
v 5.735155084888164 18.98198742385524 -2.5
v 4.517682256486335 13.490322383805616 -1.25
v 4.517682256486335 13.490322383805616 -2.5
vt 0.7578125 0.59375
vt 0.7578125 0.6640625
vt 0.75 0.6640625
vt 0.75 0.59375
vt 0.1953125 0.21875
vt 0.2109375 0.21875
vt 0.1953125 0.2890625
vt 0.21875 0.21875
vt 0.234375 0.21875
vt 0.234375 0.2890625
vt 0.4296875 0.1796875
vt 0.4375 0.1796875
vt 0.4375 0.25
vt 0.4296875 0.25
vn 0 0 -1
vn -0.9762960071199334 0.21643961393810288 0
vn 0.9762960071199334 -0.21643961393810288 0
vn 0.04695234454168586 0.2117883397910532 0.976187060183953
usemtl m_a7fae5ec-5dc3-c877-ce38-21137325dad1
f 146/413/106 144/414/106 141/415/106 143/416/106
f 146/417/107 145/418/107 144/419/107
f 142/420/108 143/421/108 141/422/108
f 145/423/109 142/424/109 141/425/109 144/426/109
o cube
v 5.735155084888164 18.98198742385524 2.5
v 4.517682256486335 13.490322383805616 1.25
v 4.517682256486335 13.490322383805616 2.5
v 6.345340089338122 18.846712665143926 2.5
v 5.127867260936293 13.3550476250943 1.25
v 5.127867260936293 13.3550476250943 2.5
vt 0.7578125 0.34375
vt 0.7578125 0.4140625
vt 0.75 0.4140625
vt 0.75 0.34375
vt 0.7109375 0.6953125
vt 0.7265625 0.6953125
vt 0.7109375 0.765625
vt 0.2421875 0.21875
vt 0.2578125 0.21875
vt 0.2578125 0.2890625
vt 0.359375 0.171875
vt 0.3671875 0.171875
vt 0.3671875 0.2421875
vt 0.359375 0.2421875
vn 1.2246467991473532e-16 0 1
vn 0.9762960071199334 -0.21643961393810288 -1.195617780139768e-16
vn -0.9762960071199334 0.21643961393810288 1.195617780139768e-16
vn 0.04695234454168574 0.2117883397910532 -0.976187060183953
usemtl m_a7fae5ec-5dc3-c877-ce38-21137325dad1
f 152/427/110 150/428/110 147/429/110 149/430/110
f 152/431/111 151/432/111 150/433/111
f 148/434/112 149/435/112 147/436/112
f 151/437/113 148/438/113 147/439/113 150/440/113
o cube
v 7.056256867697045 20.609630299138146 0.3124999999999961
v 3.8067654781274136 11.727404749811397 0.31250000000000083
v 5.02713548702733 11.456855232388769 0.31250000000000017
v 7.056256867697044 20.609630299138146 -0.3125000000000038
v 3.8067654781274127 11.727404749811397 -0.31249999999999906
v 5.027135487027329 11.456855232388769 -0.3124999999999997
vt 0.2890625 0.1484375
vt 0.2890625 0.265625
vt 0.28125 0.265625
vt 0.28125 0.1484375
vt 0.1484375 0.203125
vt 0.1640625 0.203125
vt 0.1484375 0.3203125
vt 0.5234375 0.203125
vt 0.5390625 0.203125
vt 0.5390625 0.3203125
vt 0.296875 0.1484375
vt 0.3046875 0.1484375
vt 0.3046875 0.265625
vt 0.296875 0.265625
vn 0.9762960071199334 -0.21643961393810293 -4.668605770911212e-16
vn -6.350679470756646e-16 -2.9986557213970443e-16 -1
vn 6.350679470756646e-16 2.9986557213970443e-16 1
vn -0.9391263770292066 0.34357189635940305 4.021194165452102e-16
usemtl m_a7fae5ec-5dc3-c877-ce38-21137325dad1
f 158/441/114 156/442/114 153/443/114 155/444/114
f 158/445/115 157/446/115 156/447/115
f 154/448/116 155/449/116 153/450/116
f 157/451/117 154/452/117 153/453/117 156/454/117
o cube
v 11.136537607514288 20.77783729235169 0.31249997350593006
v 5.556911005153852 10.57383448814629 0.31250001875421396
v 6.711760420792961 10.09548019768993 0.31249998652295996
v 11.136537592356127 20.777837297868814 -0.3125000264940696
v 5.556910989995689 10.57383449366341 -0.3124999812457857
v 6.711760405634799 10.09548020320705 -0.3125000134770397
vt 0.703125 0.5390625
vt 0.703125 0.6875
vt 0.6953125 0.6875
vt 0.6953125 0.5390625
vt 0.4296875 0.26171875
vt 0.4453125 0.26171875
vt 0.4296875 0.40625
vt 0.453125 0.19140625
vt 0.46875 0.19140625
vt 0.46875 0.3359375
vt 0.6953125 0.2890625
vt 0.703125 0.2890625
vt 0.703125 0.4375
vt 0.6953125 0.4375
vn 0.9238795325112874 -0.3826834323650878 -2.578500319844056e-8
vn -2.4253060670686823e-8 8.827392574598537e-9 -0.9999999999999997
vn 2.4253060670686823e-8 -8.827392574598537e-9 0.9999999999999997
vn -0.8773960217360169 0.4797668402899581 2.5514629134120207e-8
usemtl m_a7fae5ec-5dc3-c877-ce38-21137325dad1
f 164/455/118 162/456/118 159/457/118 161/458/118
f 164/459/119 163/460/119 162/461/119
f 160/462/120 161/463/120 159/464/120
f 163/465/121 160/466/121 159/467/121 162/468/121
o cube
v 11.381605294943169 13.054539629844712 -2.5
v 7.2344202753862215 9.254344712006624 -1.25
v 7.2344202753862215 9.254344712006624 -2.5
v 10.95936141518338 13.51533796535104 -2.5
v 6.812176395626434 9.715143047512951 -1.25
v 6.812176395626434 9.715143047512951 -2.5
vt 0.3828125 0.171875
vt 0.3828125 0.2421875
vt 0.375 0.2421875
vt 0.375 0.171875
vt 0.7109375 0.6171875
vt 0.7265625 0.6171875
vt 0.7109375 0.6875
vt 0.7109375 0.5390625
vt 0.7265625 0.5390625
vt 0.7265625 0.609375
vt 0.390625 0.171875
vt 0.3984375 0.171875
vt 0.3984375 0.2421875
vt 0.390625 0.2421875
vn 0 0 -1
vn -0.6755902076156604 0.7372773368101241 0
vn 0.6755902076156604 -0.7372773368101241 0
vn 0.15993791021353979 0.14655609303586617 0.9761870601839527
usemtl m_a7fae5ec-5dc3-c877-ce38-21137325dad1
f 170/469/122 168/470/122 165/471/122 167/472/122
f 170/473/123 169/474/123 168/475/123
f 166/476/124 167/477/124 165/478/124
f 169/479/125 166/480/125 165/481/125 168/482/125
o cube
v 10.959361415183377 13.515337965351044 2.5000000000000004
v 6.812176395626433 9.715143047512951 1.25
v 6.812176395626433 9.715143047512951 2.5
v 11.381605294943167 13.054539629844715 2.5
v 7.2344202753862215 9.254344712006624 1.25
v 7.2344202753862215 9.254344712006624 2.5
vt 0.6484375 0.171875
vt 0.6484375 0.2421875
vt 0.640625 0.2421875
vt 0.640625 0.171875
vt 0.7109375 0.4609375
vt 0.7265625 0.4609375
vt 0.7109375 0.53125
vt 0.7109375 0.3828125
vt 0.7265625 0.3828125
vt 0.7265625 0.453125
vt 0.65625 0.171875
vt 0.6640625 0.171875
vt 0.6640625 0.2421875
vt 0.65625 0.2421875
vn 5.179425182329696e-17 -1.2246467991473535e-16 1
vn 0.6755902076156608 -0.7372773368101235 -1.252821224034393e-16
vn -0.6755902076156608 0.7372773368101235 1.252821224034393e-16
vn 0.1599379102135396 0.14655609303586642 -0.9761870601839527
usemtl m_a7fae5ec-5dc3-c877-ce38-21137325dad1
f 176/483/126 174/484/126 171/485/126 173/486/126
f 176/487/127 175/488/127 174/489/127
f 172/490/128 173/491/128 171/492/128
f 175/493/129 172/494/129 171/495/129 174/496/129
o cube
v 12.975122241342067 14.090872101370888 0.31249999999997685
v 5.218659449227558 8.678810575986756 0.3125000000000071
v 6.06314720874713 7.757213904974098 0.31249999999999867
v 12.975122241342063 14.090872101370888 -0.31250000000002315
v 5.2186594492275535 8.678810575986759 -0.3124999999999929
v 6.063147208747126 7.7572139049741 -0.31250000000000133
vt 0.3203125 0.1484375
vt 0.3203125 0.265625
vt 0.3125 0.265625
vt 0.3125 0.1484375
vt 0.171875 0.203125
vt 0.1875 0.203125
vt 0.171875 0.3203125
vt 0.546875 0.203125
vt 0.5625 0.203125
vt 0.5625 0.3203125
vt 0.328125 0.1484375
vt 0.3359375 0.1484375
vt 0.3359375 0.265625
vt 0.328125 0.265625
vn 0.6755902076156575 -0.7372773368101266 -6.8127991331941474e-15
vn -6.2942791798157035e-15 3.4179906888686007e-15 -1
vn 6.2942791798157035e-15 -3.4179906888686007e-15 1
vn -0.5722225476449887 0.8200983818827342 6.4437050200237945e-15
usemtl m_a7fae5ec-5dc3-c877-ce38-21137325dad1
f 182/497/130 180/498/130 177/499/130 179/500/130
f 182/501/131 181/502/131 180/503/131
f 178/504/132 179/505/132 177/506/132
f 181/507/133 178/508/133 177/509/133 180/510/133
o cube
v -11.804539629844712 14.037855294943169 -2.65625
v -8.004344712006624 9.89067027538622 -1.40625
v -8.004344712006624 9.89067027538622 -2.65625
v -12.26533796535104 13.61561141518338 -2.65625
v -8.465143047512951 9.468426395626434 -1.40625
v -8.465143047512951 9.468426395626434 -2.65625
vt 0.2265625 0.53125
vt 0.2265625 0.6015625
vt 0.21875 0.6015625
vt 0.21875 0.53125
vt 0 0.9296875
vt 0.015625 0.9296875
vt 0 1
vt 0.484375 0.5625
vt 0.5 0.5625
vt 0.5 0.6328125
vt 0.4140625 0.1953125
vt 0.421875 0.1953125
vt 0.421875 0.265625
vt 0.4140625 0.265625
vn 0 0 -1
vn -0.7372773368101241 -0.6755902076156604 0
vn 0.7372773368101241 0.6755902076156604 0
vn -0.14655609303586617 0.15993791021353979 0.9761870601839527
usemtl m_a7fae5ec-5dc3-c877-ce38-21137325dad1
f 188/511/134 186/512/134 183/513/134 185/514/134
f 188/515/135 187/516/135 186/517/135
f 184/518/136 185/519/136 183/520/136
f 187/521/137 184/522/137 183/523/137 186/524/137
o cube
v -12.840872101370927 15.631372241342033 0.15624999999999412
v -7.428810575986749 7.874909449227558 0.15624999999999967
v -6.507213904974097 8.719397208747136 0.15625000000000244
v -12.840872101370927 15.631372241342033 -0.4687500000000058
v -7.428810575986748 7.874909449227559 -0.4687500000000002
v -6.507213904974096 8.719397208747136 -0.46874999999999745
vt 0.6015625 0.1796875
vt 0.6015625 0.296875
vt 0.59375 0.296875
vt 0.59375 0.1796875
vt 0.390625 0.6640625
vt 0.40625 0.6640625
vt 0.390625 0.78125
vt 0.5 0.21875
vt 0.515625 0.21875
vt 0.515625 0.3359375
vt 0.265625 0.1484375
vt 0.2734375 0.1484375
vt 0.2734375 0.265625
vt 0.265625 0.265625
vn 0.7372773368101224 0.6755902076156619 2.2371291926867875e-15
vn 2.2371291926867883e-15 8.452777875236645e-16 -1
vn -2.2371291926867883e-15 -8.452777875236645e-16 1
vn -0.8200983818827305 -0.5722225476449938 -2.329219930132194e-15
usemtl m_a7fae5ec-5dc3-c877-ce38-21137325dad1
f 194/525/138 192/526/138 189/527/138 191/528/138
f 194/529/139 193/530/139 192/531/139
f 190/532/140 191/533/140 189/534/140
f 193/535/141 190/536/141 189/537/141 192/538/141
o cube
v -12.26533796535103 13.615611415183393 2.3437500000000018
v -8.465143047512951 9.468426395626436 1.0937500000000002
v -8.465143047512951 9.468426395626436 2.34375
v -11.804539629844701 14.03785529494318 2.3437500000000018
v -8.004344712006622 9.890670275386222 1.09375
v -8.004344712006622 9.890670275386222 2.34375
vt 0.109375 0.1875
vt 0.109375 0.2578125
vt 0.1015625 0.2578125
vt 0.1015625 0.1875
vt 0.1875 0.390625
vt 0.203125 0.390625
vt 0.1875 0.4609375
vt 0.703125 0.9296875
vt 0.71875 0.9296875
vt 0.71875 1
vt 0.1171875 0.1875
vt 0.125 0.1875
vt 0.125 0.2578125
vt 0.1171875 0.2578125
vn 2.3754060202005476e-16 -1.2246467991473535e-16 1
vn 0.7372773368101257 0.6755902076156584 -9.239736391243875e-17
vn -0.7372773368101257 -0.6755902076156584 9.239736391243875e-17
vn -0.14655609303586595 0.15993791021354029 -0.9761870601839527
usemtl m_a7fae5ec-5dc3-c877-ce38-21137325dad1
f 200/539/142 198/540/142 195/541/142 197/542/142
f 200/543/143 199/544/143 198/545/143
f 196/546/144 197/547/144 195/548/144
f 199/549/145 196/550/145 195/551/145 198/552/145
o cube
v -11.806937739376373 19.785043184546968 -4.684389764975094e-9
v -6.198900249428778 9.596627127016617 1.1003956357225064e-8
v -5.174960194067529 10.313597672455412 -1.5312752010832043e-8
v -11.80693775048459 19.785043177470254 -0.6250000046843897
v -6.198900260536993 9.596627119939903 -0.6249999889960436
v -5.174960205175744 10.313597665378698 -0.625000015312752
vt 0.6171875 0.15625
vt 0.6171875 0.3046875
vt 0.609375 0.3046875
vt 0.609375 0.15625
vt 0.078125 0.19140625
vt 0.09375 0.19140625
vt 0.078125 0.3359375
vt 0.4765625 0.19140625
vt 0.4921875 0.19140625
vt 0.4921875 0.3359375
vt 0.625 0.15625
vt 0.6328125 0.15625
vt 0.6328125 0.3046875
vt 0.625 0.3046875
vn 0.8191520442889991 0.5735764363510352 -2.105336669285978e-8
vn -1.7773145413884564e-8 -1.1322742542802562e-8 -0.9999999999999998
vn 1.7773145413884564e-8 1.1322742542802562e-8 0.9999999999999998
vn -0.8760557879290582 -0.4822097639368126 2.1030203895591264e-8
usemtl m_a7fae5ec-5dc3-c877-ce38-21137325dad1
f 206/553/146 204/554/146 201/555/146 203/556/146
f 206/557/147 205/558/147 204/559/147
f 202/560/148 203/561/148 201/562/148
f 205/563/149 202/564/149 201/565/149 204/566/149
o cube
v -6.742983806191594 18.46715850558145 2.1874999999999996
v -4.590389499137959 13.270336135205463 0.9375
v -4.590389499137959 13.270336135205463 2.1875
v -6.165559098372039 18.70633565080963 2.187499999999999
v -4.012964791318405 13.509513280433644 0.9374999999999999
v -4.012964791318405 13.509513280433644 2.1875
vt 0.7734375 0.9296875
vt 0.7734375 1
vt 0.765625 1
vt 0.765625 0.9296875
vt 0.0234375 0.203125
vt 0.0390625 0.203125
vt 0.0234375 0.2734375
vt 0.7265625 0.3359375
vt 0.7421875 0.3359375
vt 0.7421875 0.40625
vt 0.765625 0.59375
vt 0.7734375 0.59375
vt 0.7734375 0.6640625
vt 0.765625 0.6640625
vn 5.034415199512328e-17 1.224646799147353e-16 1
vn 0.9238795325112864 0.38268343236509067 -9.337713566319472e-17
vn -0.9238795325112864 -0.38268343236509067 9.337713566319472e-17
vn -0.08301569218257393 0.20041760995695931 -0.976187060183953
usemtl m_a7fae5ec-5dc3-c877-ce38-21137325dad1
f 212/567/150 210/568/150 207/569/150 209/570/150
f 212/571/151 211/572/151 210/573/151
f 208/574/152 209/575/152 207/576/152
f 211/577/153 208/578/153 207/579/153 210/580/153
o cube
v -6.1655590983720385 18.70633565080963 -2.8125
v -4.012964791318405 13.509513280433644 -1.5625
v -4.012964791318405 13.509513280433644 -2.8125
v -6.742983806191592 18.467158505581452 -2.8125
v -4.590389499137959 13.270336135205463 -1.5625
v -4.590389499137959 13.270336135205463 -2.8125
vt 0.6796875 0.171875
vt 0.6796875 0.2421875
vt 0.671875 0.2421875
vt 0.671875 0.171875
vt 0 0.203125
vt 0.015625 0.203125
vt 0 0.2734375
vt 0.7265625 0.9296875
vt 0.7421875 0.9296875
vt 0.7421875 1
vt 0.6875 0.171875
vt 0.6953125 0.171875
vt 0.6953125 0.2421875
vt 0.6875 0.2421875
vn 0 0 -1
vn -0.9238795325112865 -0.38268343236509045 0
vn 0.9238795325112865 0.38268343236509045 0
vn -0.08301569218257382 0.20041760995695942 0.9761870601839527
usemtl m_a7fae5ec-5dc3-c877-ce38-21137325dad1
f 218/581/154 216/582/154 213/583/154 215/584/154
f 218/585/155 217/586/155 216/587/155
f 214/588/156 215/589/156 213/590/156
f 217/591/157 214/592/157 213/593/157 216/594/157
o cube
v -6.594378180146822 20.558198346882378 5.551115123125783e-16
v -4.161570417363188 11.41847343913271 2.220446049250313e-16
v -3.006721001724081 11.896827729589075 -4.440892098500626e-16
v -6.594378180146822 20.558198346882378 -0.6249999999999994
v -4.161570417363189 11.41847343913271 -0.6249999999999998
v -3.006721001724081 11.896827729589075 -0.6250000000000004
vt 0.7421875 0.546875
vt 0.7421875 0.6640625
vt 0.734375 0.6640625
vt 0.734375 0.546875
vt 0.6875 0.8203125
vt 0.703125 0.8203125
vt 0.6875 0.9375
vt 0.6875 0.6953125
vt 0.703125 0.6953125
vt 0.703125 0.8125
vt 0.34375 0.1484375
vt 0.3515625 0.1484375
vt 0.3515625 0.265625
vt 0.34375 0.265625
vn 0.9238795325112856 0.38268343236509234 -5.553425602624086e-16
vn -5.553425602624086e-16 -1.0986074597975914e-16 -1
vn 5.553425602624086e-16 1.0986074597975914e-16 1
vn -0.9663520355333858 -0.2572231393566335 5.649906450492862e-16
usemtl m_a7fae5ec-5dc3-c877-ce38-21137325dad1
f 224/595/158 222/596/158 219/597/158 221/598/158
f 224/599/159 223/600/159 222/601/159
f 220/602/160 221/603/160 219/604/160
f 223/605/161 220/606/161 219/607/161 222/608/161
o cube
v -6.554054054054054 12.632211538461538 -3.7499999999999996
v -6.554054054054053 12.632211538461538 3.1250000000000004
v -9.6875 3.28125 -3.749999999999999
v -9.6875 3.28125 3.125000000000001
v -2.0312500000000004 17.65625 -3.75
v -2.0312499999999996 17.65625 3.125
v -2.0312499999999996 9.435096153846153 3.125
v -2.0312500000000004 9.435096153846153 -3.75
v -9.6875 9.435096153846153 -3.749999999999999
v -9.6875 9.435096153846153 3.125000000000001
v -4.315878378378378 9.435096153846153 3.125
v -4.315878378378378 4.53125 3.125
v -4.315878378378379 4.53125 -3.75
v -4.315878378378379 9.435096153846153 -3.75
v -4.315878378378379 17.65625 -3.75
v -4.315878378378378 17.65625 3.125
vt 0.0859375 0.4375
vt 0.0859375 0.515625
vt 0 0.515625
vt 0 0.4375
vt 0.3203125 0.57968671875
vt 0.3203125 0.6484375
vt 0.234375 0.6484375
vt 0.234375 0.57968671875
vt 0.59375 0.9296875
vt 0.59375 1
vt 0.5078125 1
vt 0.5078125 0.9296875
vt 0.59375 0.546875
vt 0.5234375 0.546875
vt 0.5234375 0.48557656250000003
vt 0.59375 0.46995156250000003
vt 0.0791015625 0.7734375
vt 0.146246875 0.7890625
vt 0.146246875 0.8503609375
vt 0.0791015625 0.8503609375
vt 0.390625 0.890625
vt 0.390625 0.7890625
vt 0.4765625 0.7890625
vt 0.4765625 0.890625
vt 0.34451015625 0.43864218749999995
vt 0.31523072310666 0.4807321771441523
vt 0.34451015625 0.546875
vt 0.234375 0.57968671875
vt 0.234375 0.52372890625
vt 0.3203125 0.52372890625
vt 0.3203125 0.57968671875
vt 0.146246875 0.8503609375
vt 0.0791015625 0.8503609375
vt 0.11826953125 0.89032421875
vt 0.484375 0.34375
vt 0.515625 0.34375
vt 0.515625 0.4453125
vt 0.484375 0.4453125
vt 0.5703125 0.3046875
vt 0.6015625 0.3046875
vt 0.6015625 0.390625
vt 0.5703125 0.390625
vt 0.1748046875 0.953125
vt 0.146246875 0.953125
vt 0.146246875 0.8503609375
vt 0.1748046875 0.8503609375
vt 0.146246875 0.953125
vt 0.146246875 0.8503609375
vt 0.11826953125 0.89032421875
vt 0.31523072310666 0.4807321771441523
vt 0.34451015625 0.43864218749999995
vt 0.27423984375 0.43864218749999995
vn -1 0 1.2246467991473532e-16
vn -0.9134556075387894 0.40693838975444574 1.1186604859355794e-16
vn 0.22664863997772486 -0.9739765880123853 -2.775645314798216e-17
vn -1.2246467991473532e-16 0 -1
vn 1.2246467991473532e-16 0 1
vn 1 0 -1.2246467991473532e-16
vn -1.2246467991473532e-16 0 -1
vn -0.7141823674850889 0.6999596745337502 8.746211503480929e-17
vn -1.2246467991473532e-16 0 -1
vn -1.2246467991473532e-16 0 -1
vn 0 1 0
vn 1.2246467991473532e-16 0 1
vn -1.2246467991473532e-16 0 -1
vn -1.2246467991473532e-16 0 -1
usemtl m_a7fae5ec-5dc3-c877-ce38-21137325dad1
f 228/609/162 234/610/162 233/611/162 227/612/162
f 226/613/163 240/614/163 239/615/163 225/616/163
f 227/617/164 237/618/164 236/619/164 228/620/164
f 233/621/165 238/622/165 237/623/165 227/624/165
f 228/625/166 236/626/166 235/627/166 234/628/166
f 230/629/167 231/630/167 232/631/167 229/632/167
f 238/633/168 225/634/168 239/635/168
f 225/636/169 233/637/169 234/638/169 226/639/169
f 235/640/170 234/641/170 226/642/170
f 232/643/171 238/644/171 239/645/171 229/646/171
f 229/647/172 239/648/172 240/649/172 230/650/172
f 230/651/173 240/652/173 235/653/173 231/654/173
f 240/655/174 235/656/174 226/657/174
f 225/658/175 238/659/175 233/660/175