# Made in Blockbench 4.12.1
mtllib mobs_hs_hell_sentinel_arrow.mtl

o cylinder
v 1.5641927763018725e-17 -0.15787353372512844 -4.1875
v 0.9328450517693729 -1.5078995751406263 -4.1875
v 0.9328450517693729 -1.5078995751406254 2.3125
v -1.509375 0.35779052839811865 -4.1875
v -1.509375 0.35779052839811926 2.3125
v -0.9328450517693729 -1.5078995751406254 -4.1875
v -0.9328450517693729 -1.5078995751406254 2.3125
v 2.099995953455603e-16 1.510850424859373 -4.1875
v 1.509375 0.3577905283981183 -4.1875
v 1.509375 0.35779052839811926 2.3125
v 2.099995953455603e-16 1.5108504248593735 2.3125
v -1.509375 0.35779052839811865 -4.1875
v 2.099995953455603e-16 1.510850424859373 -4.1875
v 1.5641927763018725e-17 -0.15787353372512844 -4.1875
v -0.9328450517693729 -1.5078995751406254 -4.1875
v 0.9328450517693729 -1.5078995751406263 -4.1875
v 1.509375 0.3577905283981183 -4.1875
vt 0.55 0.951825
vt 0.5428375 0.975
vt 0.53125 0.958225
vt 0.775 1
vt 0.5 1
vt 0.5 0
vt 0.775 0
vt 0.5125 0.951825
vt 0.53125 0.9375
vt 0.53125 0.958225
vt 0.775 1
vt 0.5 1
vt 0.5 0
vt 0.775 0
vt 0.5196625 0.975
vt 0.5125 0.951825
vt 0.53125 0.958225
vt 0.775 1
vt 0.5 1
vt 0.5 0
vt 0.775 0
vt 0.5428375 0.975
vt 0.5196625 0.975
vt 0.53125 0.958225
vt 0.775 1
vt 0.5 1
vt 0.5 0
vt 0.775 0
vt 0.53125 0.9375
vt 0.55 0.951825
vt 0.53125 0.958225
vt 0.49097499999999994 0
vt 0.7880125 0
vt 0.7880125 0.9944500000000001
vt 0.49097499999999994 0.9944500000000001
vt 0.55 0.951825
vt 0.5428375 0.975
vt 0.53125 0.958225
vt 0.5125 0.951825
vt 0.53125 0.9375
vt 0.53125 0.958225
vt 0.5196625 0.975
vt 0.5125 0.951825
vt 0.53125 0.958225
vt 0.5428375 0.975
vt 0.5196625 0.975
vt 0.53125 0.958225
vt 0.53125 0.9375
vt 0.55 0.951825
vt 0.53125 0.958225
vt 0.3828125 0.4921875
vt 0.4765625 0.7890625
vt 0.1015625 0.484375
vt 0.24113376698465633 1
vt 0 0.7935110164514768
vt 0.09728169035093018 0.4945101372874682
vt 0.46875 0.796875
vn 0 0 -1
vn 0.9554225632202386 -0.2952418088443261 3.4987495047346776e-17
vn 0 0 -1
vn -0.607061998206686 0.7946544722917664 -7.193960346885686e-17
vn 0 0 -1
vn -0.9554225632202383 -0.29524180884432616 0
vn 0 0 -1
vn -4.76058922119742e-16 -1 1.3664283380001927e-16
vn 0 0 -1
vn 0.607061998206686 0.7946544722917662 -1.4387920693771375e-16
vn 0 0 -1
vn 0 0 -1
vn 0 0 -1
vn 0 0 -1
vn 0 0 -1
vn 0 0 1
vn 0 0 1
usemtl m_0be82223-fbf1-922e-4632-a9f709a5910b
f 9/1/1 2/2/1 1/3/1
f 2/4/2 9/5/2 10/6/2 3/7/2
f 4/8/3 8/9/3 1/10/3
f 8/11/4 4/12/4 5/13/4 11/14/4
f 6/15/5 4/16/5 1/17/5
f 4/18/6 6/19/6 7/20/6 5/21/6
f 2/22/7 6/23/7 1/24/7
f 6/25/8 2/26/8 3/27/8 7/28/8
f 8/29/9 9/30/9 1/31/9
f 11/32/10 10/33/10 9/34/10 8/35/10
f 17/36/11 16/37/11 14/38/11
f 12/39/12 13/40/12 14/41/12
f 15/42/13 12/43/13 14/44/13
f 16/45/14 15/46/14 14/47/14
f 13/48/15 17/49/15 14/50/15
f 3/51/16 10/52/16 7/53/16
f 11/54/17 5/55/17 7/56/17 10/57/17